<svg xmlns="http://www.w3.org/2000/svg" xmlns:xlink="http://www.w3.org/1999/xlink"
width="1000" zoomAndPan="magnify" viewBox="0 0 750 749.999995" height="1000"
preserveAspectRatio="xMidYMid meet" version="1.0">
  <defs>
    <clipPath id="a109af5267">
      <path d="M 28.675781 106.714844 L 722 106.714844 L 722 750 L 28.675781 750 Z M 28.675781 106.714844 "
      clip-rule="nonzero" />
    </clipPath>
    <clipPath id="bfe4759a58">
      <path d="M 375 106.714844 C 183.730469 106.714844 28.675781 250.71875 28.675781 428.359375 C 28.675781 605.996094 183.730469 750 375 750 C 566.269531 750 721.324219 605.996094 721.324219 428.359375 C 721.324219 250.71875 566.269531 106.714844 375 106.714844 Z M 375 106.714844 "
      clip-rule="nonzero" />
    </clipPath>
    <clipPath id="0436c2073c">
      <path d="M 89.082031 134.386719 L 661 134.386719 L 661 690.113281 L 89.082031 690.113281 Z M 89.082031 134.386719 "
      clip-rule="nonzero" />
    </clipPath>
    <clipPath id="e276f6fadd">
      <path d="M 375 134.386719 C 217.089844 134.386719 89.082031 258.789062 89.082031 412.25 C 89.082031 565.710938 217.089844 690.113281 375 690.113281 C 532.910156 690.113281 660.917969 565.710938 660.917969 412.25 C 660.917969 258.789062 532.910156 134.386719 375 134.386719 Z M 375 134.386719 "
      clip-rule="nonzero" />
    </clipPath>
    <clipPath id="03b6a4ed0c">
      <path d="M 89.082031 79.203125 L 661 79.203125 L 661 645.816406 L 89.082031 645.816406 Z M 89.082031 79.203125 "
      clip-rule="nonzero" />
    </clipPath>
    <clipPath id="5360c0b0e3">
      <path d="M 375 79.203125 C 217.089844 79.203125 89.082031 206.042969 89.082031 362.511719 C 89.082031 518.976562 217.089844 645.816406 375 645.816406 C 532.910156 645.816406 660.917969 518.976562 660.917969 362.511719 C 660.917969 206.042969 532.910156 79.203125 375 79.203125 Z M 375 79.203125 "
      clip-rule="nonzero" />
    </clipPath>
  </defs>
  <g clip-path="url(#a109af5267)">
    <g clip-path="url(#bfe4759a58)">
      <path fill="#ffffff" d="M 28.675781 106.714844 L 722.214844 106.714844 L 722.214844 750 L 28.675781 750 Z M 28.675781 106.714844 "
      fill-opacity="1" fill-rule="nonzero" />
    </g>
  </g>
  <g clip-path="url(#0436c2073c)">
    <g clip-path="url(#e276f6fadd)">
      <path fill="#ba0000" d="M 89.082031 134.386719 L 660.007812 134.386719 L 660.007812 690.113281 L 89.082031 690.113281 Z M 89.082031 134.386719 "
      fill-opacity="1" fill-rule="nonzero" />
    </g>
  </g>
  <g clip-path="url(#03b6a4ed0c)">
    <g clip-path="url(#5360c0b0e3)">
      <path fill="#ff0000" d="M 89.082031 79.203125 L 660.121094 79.203125 L 660.121094 645.816406 L 89.082031 645.816406 Z M 89.082031 79.203125 "
      fill-opacity="1" fill-rule="nonzero" />
    </g>
  </g>
</svg>