<svg xmlns="http://www.w3.org/2000/svg" xmlns:xlink="http://www.w3.org/1999/xlink" width="1000" zoomAndPan="magnify" viewBox="0 0 750 749.999995" height="1000" preserveAspectRatio="xMidYMid meet" version="1.0"><defs><clipPath id="ebcd5bacaf"><path d="M 223 123 L 712.238281 123 L 712.238281 682 L 223 682 Z M 223 123 " clip-rule="nonzero"/></clipPath><clipPath id="750a74fd81"><path d="M 224.21875 284.738281 L 712.863281 284.738281 L 712.863281 402.261719 L 224.21875 402.261719 Z M 224.21875 284.738281 " clip-rule="nonzero"/></clipPath><clipPath id="7453ad55ae"><path d="M 223 5 L 712.238281 5 L 712.238281 564 L 223 564 Z M 223 5 " clip-rule="nonzero"/></clipPath></defs><path fill="#ffffff" d="M 710.210938 739.324219 L 166.113281 425.941406 C 148.101562 415.597656 148.101562 389.730469 166.113281 379.382812 L 710.347656 66.003906 C 728.359375 55.65625 750.742188 68.589844 750.742188 89.28125 L 750.742188 716.046875 C 750.605469 736.738281 728.222656 749.671875 710.210938 739.324219 Z M 710.210938 739.324219 " fill-opacity="1" fill-rule="nonzero"/><g clip-path="url(#ebcd5bacaf)"><path fill="#ba9700" d="M 679.703125 678.25 L 234.738281 421.335938 C 220.007812 412.855469 220.007812 391.652344 234.738281 383.167969 L 679.816406 126.257812 C 694.546875 117.773438 712.851562 128.378906 712.851562 145.339844 L 712.851562 659.164062 C 712.738281 676.128906 694.4375 686.730469 679.703125 678.25 Z M 679.703125 678.25 " fill-opacity="1" fill-rule="nonzero"/></g><g clip-path="url(#750a74fd81)"><path fill="#ba9700" d="M 224.21875 284.738281 L 712.667969 284.738281 L 712.667969 402.261719 L 224.21875 402.261719 Z M 224.21875 284.738281 " fill-opacity="1" fill-rule="nonzero"/></g><g clip-path="url(#7453ad55ae)"><path fill="#ffbf00" d="M 679.703125 560.730469 L 234.738281 303.816406 C 220.007812 295.335938 220.007812 274.128906 234.738281 265.648438 L 679.816406 8.734375 C 694.546875 0.253906 712.851562 10.855469 712.851562 27.820312 L 712.851562 541.644531 C 712.738281 558.609375 694.4375 569.210938 679.703125 560.730469 Z M 679.703125 560.730469 " fill-opacity="1" fill-rule="nonzero"/></g></svg>