<svg xmlns="http://www.w3.org/2000/svg" xmlns:xlink="http://www.w3.org/1999/xlink" width="1000" zoomAndPan="magnify" viewBox="0 0 750 749.999995" height="1000" preserveAspectRatio="xMidYMid meet" version="1.0"><defs><clipPath id="32cf741b94"><path d="M 225 125 L 712.390625 125 L 712.390625 682 L 225 682 Z M 225 125 " clip-rule="nonzero"/></clipPath><clipPath id="de3c1c575f"><path d="M 226.34375 359.539062 L 713.011719 359.539062 L 713.011719 403.664062 L 226.34375 403.664062 Z M 226.34375 359.539062 " clip-rule="nonzero"/></clipPath><clipPath id="24091d45e5"><path d="M 225 81 L 712.390625 81 L 712.390625 638 L 225 638 Z M 225 81 " clip-rule="nonzero"/></clipPath></defs><path fill="#ffffff" d="M 710.371094 739.367188 L 168.472656 427.25 C 150.53125 416.945312 150.53125 391.1875 168.472656 380.882812 L 710.507812 68.765625 C 728.449219 58.460938 750.738281 71.34375 750.738281 91.953125 L 750.738281 716.183594 C 750.601562 736.789062 728.3125 749.671875 710.371094 739.367188 Z M 710.371094 739.367188 " fill-opacity="1" fill-rule="nonzero"/><g clip-path="url(#32cf741b94)"><path fill="#ba9700" d="M 679.988281 678.539062 L 236.820312 422.664062 C 222.148438 414.21875 222.148438 393.097656 236.820312 384.652344 L 680.097656 128.777344 C 694.773438 120.328125 713 130.886719 713 147.785156 L 713 659.53125 C 712.890625 676.429688 694.660156 686.988281 679.988281 678.539062 Z M 679.988281 678.539062 " fill-opacity="1" fill-rule="nonzero"/></g><g clip-path="url(#de3c1c575f)"><path fill="#ba9700" d="M 226.34375 359.539062 L 713.089844 359.539062 L 713.089844 403.664062 L 226.34375 403.664062 Z M 226.34375 359.539062 " fill-opacity="1" fill-rule="nonzero"/></g><g clip-path="url(#24091d45e5)"><path fill="#ffbf00" d="M 679.988281 634.414062 L 236.820312 378.542969 C 222.148438 370.09375 222.148438 348.972656 236.820312 340.527344 L 680.097656 84.652344 C 694.773438 76.203125 713 86.765625 713 103.660156 L 713 615.410156 C 712.890625 632.304688 694.660156 642.863281 679.988281 634.414062 Z M 679.988281 634.414062 " fill-opacity="1" fill-rule="nonzero"/></g></svg>