<svg xmlns="http://www.w3.org/2000/svg" xmlns:xlink="http://www.w3.org/1999/xlink" width="1000" zoomAndPan="magnify" viewBox="0 0 750 749.999995" height="1000" preserveAspectRatio="xMidYMid meet" version="1.0"><defs><clipPath id="c296b09dc8"><path d="M 37.75 123 L 527 123 L 527 682 L 37.75 682 Z M 37.75 123 " clip-rule="nonzero"/></clipPath><clipPath id="ca5d090c1e"><path d="M 39.234375 284.707031 L 526.121094 284.707031 L 526.121094 402.226562 L 39.234375 402.226562 Z M 39.234375 284.707031 " clip-rule="nonzero"/></clipPath><clipPath id="4c4b597f08"><path d="M 36.871094 5 L 526 5 L 526 564 L 36.871094 564 Z M 36.871094 5 " clip-rule="nonzero"/></clipPath></defs><path fill="#ffffff" d="M 39.78125 65.175781 L 583.878906 378.558594 C 601.890625 388.902344 601.890625 414.769531 583.878906 425.117188 L 39.648438 738.496094 C 21.632812 748.84375 -0.746094 735.910156 -0.746094 715.21875 L -0.746094 88.457031 C -0.613281 67.761719 21.769531 54.828125 39.78125 65.175781 Z M 39.78125 65.175781 " fill-opacity="1" fill-rule="nonzero"/><g clip-path="url(#c296b09dc8)"><path fill="#ba9700" d="M 70.285156 126.257812 L 515.25 383.167969 C 529.980469 391.652344 529.980469 412.855469 515.25 421.335938 L 70.171875 678.25 C 55.441406 686.730469 37.136719 676.128906 37.136719 659.164062 L 37.136719 145.339844 C 37.25 128.375 55.554688 117.773438 70.285156 126.257812 Z M 70.285156 126.257812 " fill-opacity="1" fill-rule="nonzero"/></g><g clip-path="url(#ca5d090c1e)"><path fill="#ba9700" d="M 526.121094 402.226562 L 39.050781 402.226562 L 39.050781 284.707031 L 526.121094 284.707031 Z M 526.121094 402.226562 " fill-opacity="1" fill-rule="nonzero"/></g><g clip-path="url(#4c4b597f08)"><path fill="#ffbf00" d="M 69.40625 8.734375 L 514.371094 265.648438 C 529.105469 274.128906 529.105469 295.335938 514.371094 303.816406 L 69.296875 560.730469 C 54.5625 569.210938 36.261719 558.609375 36.261719 541.644531 L 36.261719 27.820312 C 36.371094 10.855469 54.675781 0.253906 69.40625 8.734375 Z M 69.40625 8.734375 " fill-opacity="1" fill-rule="nonzero"/></g></svg>