<svg xmlns="http://www.w3.org/2000/svg" xmlns:xlink="http://www.w3.org/1999/xlink" width="1000" zoomAndPan="magnify" viewBox="0 0 750 749.999995" height="1000" preserveAspectRatio="xMidYMid meet" version="1.0"><defs><clipPath id="2f18e0f042"><path d="M 37.75 123 L 527 123 L 527 682 L 37.75 682 Z M 37.75 123 " clip-rule="nonzero"/></clipPath><clipPath id="9075cd25a8"><path d="M 43.09375 357.929688 L 526.292969 357.929688 L 526.292969 402.234375 L 43.09375 402.234375 Z M 43.09375 357.929688 " clip-rule="nonzero"/></clipPath><clipPath id="4c9edcec0e"><path d="M 37.75 78 L 527 78 L 527 637 L 37.75 637 Z M 37.75 78 " clip-rule="nonzero"/></clipPath></defs><path fill="#ffffff" d="M 39.78125 65.175781 L 583.878906 378.558594 C 601.890625 388.902344 601.890625 414.769531 583.878906 425.117188 L 39.648438 738.496094 C 21.632812 748.84375 -0.746094 735.910156 -0.746094 715.21875 L -0.746094 88.457031 C -0.613281 67.761719 21.769531 54.828125 39.78125 65.175781 Z M 39.78125 65.175781 " fill-opacity="1" fill-rule="nonzero"/><g clip-path="url(#2f18e0f042)"><path fill="#ba9700" d="M 70.285156 126.257812 L 515.25 383.167969 C 529.980469 391.652344 529.980469 412.855469 515.25 421.335938 L 70.171875 678.25 C 55.441406 686.730469 37.136719 676.128906 37.136719 659.164062 L 37.136719 145.339844 C 37.25 128.378906 55.554688 117.773438 70.285156 126.257812 Z M 70.285156 126.257812 " fill-opacity="1" fill-rule="nonzero"/></g><g clip-path="url(#9075cd25a8)"><path fill="#ba9700" d="M 526.292969 402.234375 L 43.109375 402.234375 L 43.109375 357.929688 L 526.292969 357.929688 Z M 526.292969 402.234375 " fill-opacity="1" fill-rule="nonzero"/></g><g clip-path="url(#4c9edcec0e)"><path fill="#ffbf00" d="M 70.285156 81.953125 L 515.25 338.867188 C 529.980469 347.347656 529.980469 368.550781 515.25 377.035156 L 70.171875 633.945312 C 55.441406 642.429688 37.136719 631.828125 37.136719 614.863281 L 37.136719 101.039062 C 37.25 84.074219 55.554688 73.472656 70.285156 81.953125 Z M 70.285156 81.953125 " fill-opacity="1" fill-rule="nonzero"/></g></svg>