<svg xmlns="http://www.w3.org/2000/svg" xmlns:xlink="http://www.w3.org/1999/xlink"
width="1000" zoomAndPan="magnify" viewBox="0 0 750 749.999995" height="1000"
preserveAspectRatio="xMidYMid meet" version="1.0">
  <defs>
    <clipPath id="5d0cf7331f">
      <path d="M 28.675781 106.714844 L 722 107.714844 L 722 750 L 28.675781 750 Z M 28.675781 106.714844 "
      clip-rule="nonzero" />
    </clipPath>
    <clipPath id="0df5556057">
      <path d="M 375 106.714844 C 183.730469 106.714844 28.675781 250.71875 28.675781 428.359375 C 28.675781 605.996094 183.730469 750 375 750 C 566.269531 750 721.324219 605.996094 721.324219 428.359375 C 721.324219 250.71875 566.269531 106.714844 375 106.714844 Z M 375 106.714844 "
      clip-rule="nonzero" />
    </clipPath>
    <clipPath id="c3a16112ba">
      <path d="M 89.082031 134.386719 L 661 134.386719 L 661 690.113281 L 89.082031 690.113281 Z M 89.082031 134.386719 "
      clip-rule="nonzero" />
    </clipPath>
    <clipPath id="ab9a5641d3">
      <path d="M 375 134.386719 C 217.089844 134.386719 89.082031 258.789062 89.082031 412.25 C 89.082031 565.710938 217.089844 690.113281 375 690.113281 C 532.910156 690.113281 660.917969 565.710938 660.917969 412.25 C 660.917969 258.789062 532.910156 134.386719 375 134.386719 Z M 375 134.386719 "
      clip-rule="nonzero" />
    </clipPath>
    <clipPath id="ab25be6bac">
      <path d="M 89.082031 283.308594 L 660.917969 283.308594 L 660.917969 428.359375 L 89.082031 428.359375 Z M 89.082031 283.308594 "
      clip-rule="nonzero" />
    </clipPath>
    <clipPath id="3e7cfa5f3b">
      <path d="M 89.082031 0 L 661 0 L 661 566.617188 L 89.082031 566.617188 Z M 89.082031 0 "
      clip-rule="nonzero" />
    </clipPath>
    <clipPath id="8ec7d41be5">
      <path d="M 375 0 C 217.089844 0 89.082031 126.839844 89.082031 283.308594 C 89.082031 439.773438 217.089844 566.617188 375 566.617188 C 532.910156 566.617188 660.917969 439.773438 660.917969 283.308594 C 660.917969 126.839844 532.910156 0 375 0 Z M 375 0 "
      clip-rule="nonzero" />
    </clipPath>
  </defs>
  <g clip-path="url(#5d0cf7331f)">
    <g clip-path="url(#0df5556057)">
      <path fill="#ffffff" d="M 28.675781 106.714844 L 722.214844 106.714844 L 722.214844 750 L 28.675781 750 Z M 28.675781 106.714844 "
      fill-opacity="1" fill-rule="nonzero" />
    </g>
  </g>
  <g clip-path="url(#c3a16112ba)">
    <g clip-path="url(#ab9a5641d3)">
      <path fill="#ba0000" d="M 89.082031 134.386719 L 660.007812 134.386719 L 660.007812 690.113281 L 89.082031 690.113281 Z M 89.082031 134.386719 "
      fill-opacity="1" fill-rule="nonzero" />
    </g>
  </g>
  <g clip-path="url(#ab25be6bac)">
    <path fill="#ba0000" d="M 89.082031 283.308594 L 660.785156 283.308594 L 660.785156 428.359375 L 89.082031 428.359375 Z M 89.082031 283.308594 "
    fill-opacity="1" fill-rule="nonzero" />
  </g>
  <g clip-path="url(#3e7cfa5f3b)">
    <g clip-path="url(#8ec7d41be5)">
      <path fill="#ff0000" d="M 89.082031 0 L 660.121094 0 L 660.121094 566.617188 L 89.082031 566.617188 Z M 89.082031 0 "
      fill-opacity="1" fill-rule="nonzero" />
    </g>
  </g>
</svg>