<svg xmlns="http://www.w3.org/2000/svg" xmlns:xlink="http://www.w3.org/1999/xlink" width="500" zoomAndPan="magnify" viewBox="0 0 375 374.999991" height="500" preserveAspectRatio="xMidYMid meet" version="1.0"><path fill="#ffffff" d="M 106.527344 322.621094 L 106.527344 300.117188 L 68.71875 312.167969 L 25.75 177.695312 L 106.566406 151.867188 L 106.566406 123.375 C 106.566406 120.597656 106.957031 117.855469 107.699219 115.390625 L 10.523438 146.425781 C 3.832031 148.578125 0.0742188 155.820312 2.226562 162.628906 L 62.8125 352.285156 C 64.964844 359.054688 72.203125 362.8125 79.011719 360.660156 L 120.65625 347.355469 C 112.199219 342.304688 106.527344 333.148438 106.527344 322.621094 Z M 49.035156 147.757812 L 78.933594 138.167969 C 81.085938 137.464844 83.398438 138.714844 84.101562 140.867188 C 84.804688 143.097656 83.632812 145.410156 81.402344 146.113281 L 51.578125 155.703125 C 49.347656 156.40625 47.039062 155.152344 46.296875 152.921875 C 45.589844 150.808594 46.804688 148.5 49.035156 147.757812 Z M 49.035156 147.757812 " fill-opacity="1" fill-rule="nonzero"/><path fill="#ffffff" d="M 364.398438 146.425781 L 267.339844 115.390625 C 268.042969 117.855469 268.472656 120.558594 268.472656 123.375 L 268.472656 151.867188 L 349.289062 177.695312 L 306.28125 312.167969 L 268.472656 300.117188 L 268.472656 322.621094 C 268.472656 333.148438 262.800781 342.304688 254.34375 347.355469 L 295.988281 360.660156 C 302.757812 362.8125 310.035156 359.054688 312.1875 352.285156 L 372.8125 162.589844 C 374.925781 155.820312 371.207031 148.578125 364.398438 146.425781 Z M 328.664062 152.960938 C 327.960938 155.191406 325.652344 156.484375 323.382812 155.742188 L 293.480469 146.152344 C 291.328125 145.449219 290.117188 143.136719 290.859375 140.90625 C 291.484375 138.753906 293.875 137.464844 296.027344 138.207031 L 325.925781 147.796875 C 328.195312 148.5 329.410156 150.808594 328.664062 152.960938 Z M 328.664062 152.960938 " fill-opacity="1" fill-rule="nonzero"/><path fill="#ffffff" d="M 90.089844 89.953125 L 131.808594 89.953125 C 136.074219 89.953125 139.558594 86.507812 139.558594 82.203125 C 139.558594 77.9375 136.113281 74.453125 131.808594 74.453125 L 108.796875 74.453125 L 113.101562 70.148438 C 154.15625 29.09375 220.921875 29.09375 261.976562 70.148438 L 266.28125 74.453125 L 243.269531 74.453125 C 241.117188 74.453125 239.199219 75.316406 237.789062 76.722656 C 236.382812 78.132812 235.519531 80.050781 235.519531 82.203125 C 235.519531 86.46875 238.964844 89.953125 243.269531 89.953125 L 284.949219 89.953125 C 289.214844 89.953125 292.699219 86.507812 292.699219 82.203125 L 292.699219 40.523438 C 292.699219 36.257812 289.253906 32.773438 284.949219 32.773438 C 280.683594 32.773438 277.199219 36.21875 277.199219 40.523438 L 277.199219 63.535156 L 272.894531 59.230469 C 225.777344 12.1875 149.183594 12.1875 102.105469 59.269531 L 97.800781 63.574219 L 97.800781 40.5625 C 97.800781 36.296875 94.355469 32.8125 90.050781 32.8125 C 87.898438 32.8125 85.980469 33.671875 84.570312 35.082031 C 83.160156 36.492188 82.300781 38.410156 82.300781 40.5625 L 82.300781 82.242188 C 82.300781 84.277344 83.121094 86.273438 84.570312 87.722656 C 86.058594 89.128906 88.054688 89.953125 90.089844 89.953125 Z M 90.089844 89.953125 " fill-opacity="1" fill-rule="nonzero"/><path fill="#ffffff" d="M 239.628906 110.539062 L 135.332031 110.539062 C 128.207031 110.539062 122.453125 116.289062 122.453125 123.414062 L 122.453125 322.578125 C 122.453125 329.703125 128.207031 335.457031 135.332031 335.457031 L 239.628906 335.457031 C 246.753906 335.457031 252.507812 329.703125 252.507812 322.578125 L 252.507812 123.414062 C 252.507812 116.289062 246.753906 110.539062 239.628906 110.539062 Z M 171.570312 123.53125 L 202.957031 123.53125 C 205.230469 123.53125 207.109375 125.410156 207.109375 127.679688 C 207.109375 130.027344 205.230469 131.90625 202.957031 131.90625 L 171.570312 131.90625 C 169.300781 131.90625 167.421875 130.027344 167.421875 127.679688 C 167.421875 125.410156 169.261719 123.53125 171.570312 123.53125 Z M 187.539062 321.484375 C 181.550781 321.484375 176.738281 316.710938 176.738281 310.761719 C 176.738281 304.851562 181.550781 300.039062 187.539062 300.039062 C 193.449219 300.039062 198.261719 304.851562 198.261719 310.761719 C 198.261719 316.75 193.449219 321.484375 187.539062 321.484375 Z M 234.464844 286.144531 L 140.300781 286.144531 L 140.300781 144.9375 L 234.464844 144.9375 Z M 234.464844 286.144531 " fill-opacity="1" fill-rule="nonzero"/></svg>