<svg xmlns="http://www.w3.org/2000/svg" xmlns:xlink="http://www.w3.org/1999/xlink" width="1000" zoomAndPan="magnify" viewBox="0 0 750 749.999995" height="1000" preserveAspectRatio="xMidYMid meet" version="1.0">
  <defs>
    <clipPath id="725b30e1e8">
      <path d="M 51 303 L 367 303 L 367 715.96875 L 51 715.96875 Z M 51 303 " clip-rule="nonzero"/>
    </clipPath>
    <clipPath id="35251d6c63">
      <path d="M 390 303 L 699 303 L 699 715.96875 L 390 715.96875 Z M 390 303 " clip-rule="nonzero"/>
    </clipPath>
    <clipPath id="c46c93f08a">
      <path d="M 136 34.21875 L 614 34.21875 L 614 103 L 136 103 Z M 136 34.21875 " clip-rule="nonzero"/>
    </clipPath>
  </defs>
  
  <path fill="#a2a2a3" d="M 349.441406 85.335938 L 400.558594 85.335938 L 400.558594 204.609375 L 349.441406 204.609375 Z M 349.441406 85.335938 " fill-opacity="1" fill-rule="evenodd"/>
  
  <g clip-path="url(#725b30e1e8)">
    <path fill="#feb700" d="M 314.035156 303.25 C 258.792969 317.527344 171.792969 355.046875 89 391.476562 C 61.464844 403.574219 45.839844 430.273438 52.996094 452.9375 C 63.578125 486.488281 74.074219 519.015625 81.210938 545.390625 C 88.914062 573.878906 98.269531 605.539062 107.929688 636.582031 C 111.457031 647.914062 117.164062 656.347656 123.113281 658.972656 C 170.804688 679.964844 217.917969 698.828125 243.082031 707.261719 C 258.707031 712.492188 271.46875 714.367188 277.160156 715.78125 C 273.394531 711.300781 266.101562 700.632812 254.566406 688.894531 C 238.261719 672.296875 207.351562 644.046875 173.1875 614.636719 C 171.398438 585.449219 169.203125 556.226562 166.664062 529.851562 C 165.367188 516.355469 164.347656 501.140625 163.375 484.953125 C 240.492188 465.121094 315.703125 444.296875 359.921875 424.449219 L 366.839844 362 Z M 314.035156 303.25 " fill-opacity="1" fill-rule="nonzero"/>
  </g>
  
  <g clip-path="url(#35251d6c63)">
    <path fill="#feb700" d="M 435.964844 303.25 C 491.1875 317.527344 578.191406 355.046875 661 391.476562 C 688.519531 403.574219 704.160156 430.273438 697.003906 452.9375 C 686.421875 486.488281 675.910156 519.015625 668.789062 545.390625 C 661.070312 573.878906 651.714844 605.539062 642.054688 636.582031 C 638.527344 647.914062 632.816406 656.347656 626.886719 658.972656 C 579.195312 679.964844 532.082031 698.828125 506.917969 707.261719 C 491.292969 712.492188 478.511719 714.367188 472.839844 715.78125 C 476.605469 711.300781 483.878906 700.632812 495.433594 688.894531 C 511.738281 672.296875 542.628906 644.046875 576.792969 614.636719 C 578.582031 585.449219 580.796875 556.226562 583.320312 529.851562 C 584.613281 516.355469 585.652344 501.140625 586.609375 484.953125 C 509.507812 465.121094 434.277344 444.296875 390.0625 424.449219 L 407.679688 349.441406 Z M 435.964844 303.25 " fill-opacity="1" fill-rule="nonzero"/>
  </g>
  
  <path fill="#a2a2a3" d="M 17.179688 85.335938 L 217.945312 85.335938 C 227.332031 85.335938 234.992188 77.703125 234.992188 68.296875 C 234.992188 58.890625 227.332031 51.257812 217.945312 51.257812 L 17.179688 51.257812 C 7.792969 51.257812 0.132812 58.890625 0.132812 68.296875 C 0.132812 77.703125 7.792969 85.335938 17.179688 85.335938 Z M 17.179688 85.335938 " fill-opacity="1" fill-rule="evenodd"/>
  
  <path fill="#a2a2a3" d="M 554.085938 85.335938 L 732.832031 85.335938 C 742.234375 85.335938 749.878906 77.703125 749.878906 68.296875 C 749.878906 58.890625 742.234375 51.257812 732.832031 51.257812 L 554.085938 51.257812 C 544.683594 51.257812 537.039062 58.890625 537.039062 68.296875 C 537.039062 77.703125 544.683594 85.335938 554.085938 85.335938 Z M 554.085938 85.335938 " fill-opacity="1" fill-rule="evenodd"/>
  
  <g clip-path="url(#c46c93f08a)">
    <path fill="#ef304b" d="M 162.011719 34.21875 L 587.988281 34.21875 C 594.769531 34.21875 601.261719 36.910156 606.066406 41.699219 C 610.855469 46.503906 613.546875 52.996094 613.546875 59.777344 L 613.546875 76.816406 C 613.546875 83.597656 610.855469 90.089844 606.066406 94.894531 C 601.261719 99.683594 594.769531 102.375 587.988281 102.375 L 162.011719 102.375 C 147.988281 102.375 136.453125 90.839844 136.453125 76.816406 L 136.453125 59.777344 C 136.453125 52.996094 139.144531 46.503906 143.933594 41.699219 C 148.738281 36.910156 155.230469 34.21875 162.011719 34.21875 Z M 162.011719 34.21875 " fill-opacity="1" fill-rule="evenodd"/>
  </g>
  
  <path fill="#5e17eb" d="M 349.441406 187.570312 C 335.417969 187.570312 323.882812 199.105469 323.882812 213.128906 L 323.882812 292.394531 L 375 303.25 L 426.117188 292.292969 L 426.117188 213.128906 C 426.117188 199.105469 414.582031 187.570312 400.558594 187.570312 Z M 349.441406 187.570312 " fill-opacity="1" fill-rule="evenodd"/>
  
  <path fill="#ef304b" d="M 451.675781 349.441406 C 451.675781 391.511719 417.070312 426.117188 375 426.117188 C 332.929688 426.117188 298.324219 391.511719 298.324219 349.441406 C 298.324219 307.371094 332.929688 272.765625 375 272.765625 C 417.070312 272.765625 451.675781 307.371094 451.675781 349.441406 Z M 451.675781 349.441406 " fill-opacity="1" fill-rule="evenodd"/>

</svg>